<svg width="12" height="12" viewBox="0 0 12 12" fill="none" xmlns="http://www.w3.org/2000/svg">
<g id="Element">
<path fill-rule="evenodd" clip-rule="evenodd" d="M6.00003 0C4.36633 0 3.04195 1.32437 3.04195 2.95807C3.04195 4.59176 4.36633 5.91613 6.00003 5.91613C7.63373 5.91613 8.9581 4.59176 8.9581 2.95807C8.9581 1.32437 7.63373 0 6.00003 0ZM4.01493 2.95807C4.01493 1.86173 4.90368 0.972974 6.00003 0.972974C7.09637 0.972974 7.98513 1.86173 7.98513 2.95807C7.98513 4.0544 7.09637 4.94316 6.00003 4.94316C4.90368 4.94316 4.01493 4.0544 4.01493 2.95807Z" fill="#6D758F"/>
<path fill-rule="evenodd" clip-rule="evenodd" d="M6 7.03456C4.38098 7.03456 3.17815 7.38805 2.28912 7.91872C1.39971 8.44963 0.852791 9.14093 0.519596 9.77182C0.221386 10.3365 0.318935 10.9223 0.657378 11.3473C0.98291 11.7561 1.51278 12.0001 2.08158 12.0001H9.91842C10.4872 12.0001 11.0171 11.7561 11.3426 11.3473C11.681 10.9223 11.7786 10.3365 11.4804 9.77184C11.1472 9.14096 10.6003 8.44963 9.71088 7.91872C8.82185 7.38805 7.61903 7.03456 6 7.03456ZM1.37995 10.2262C1.64331 9.72755 2.07467 9.17987 2.78782 8.75418C3.50135 8.32826 4.52536 8.00753 6 8.00753C7.47464 8.00753 8.49865 8.32826 9.21218 8.75418C9.92533 9.17987 10.3567 9.72755 10.6201 10.2262C10.7274 10.4294 10.6932 10.6009 10.5815 10.7412C10.4568 10.8977 10.218 11.0271 9.91842 11.0271H2.08158C1.78197 11.0271 1.54316 10.8977 1.4185 10.7412C1.30676 10.6009 1.27262 10.4294 1.37995 10.2262Z" fill="#6D758F"/>
</g>
</svg>
