<svg width="52" height="51" viewBox="0 0 52 51" fill="none" xmlns="http://www.w3.org/2000/svg">
<g id="Email" clip-path="url(#clip0_163_4857)">
<g id="Group">
<g id="Group_2">
<g id="Group_3">
<path id="Vector" d="M48.95 5.94971H3.05C1.64172 5.94971 0.5 7.09133 0.5 8.49971V42.4997C0.5 43.908 1.64162 45.0497 3.05 45.0497H48.95C50.3583 45.0497 51.5 43.9081 51.5 42.4997V8.49971C51.5 7.09143 50.3584 5.94971 48.95 5.94971ZM49.8 42.4998C49.8 42.9692 49.4195 43.3497 48.95 43.3497H3.05C2.58054 43.3497 2.20003 42.9692 2.20003 42.4998V8.49971C2.20003 8.03025 2.58054 7.64974 3.05 7.64974H48.95C49.4195 7.64974 49.8 8.03025 49.8 8.49971V42.4998Z" fill="#228B22"/>
<path id="Vector_2" d="M47.3239 9.35289C47.0993 9.33327 46.8761 9.40369 46.7035 9.54872L27.0939 26.0216C26.4614 26.5533 25.5384 26.5533 24.9059 26.0216L5.29654 9.54862C5.06395 9.35339 4.7448 9.29701 4.45942 9.4008C4.17404 9.5046 3.96566 9.75282 3.91286 10.052C3.86007 10.3511 3.97084 10.6556 4.20342 10.8508L23.8129 27.3229C25.0768 28.3871 26.9231 28.3871 28.1871 27.3229L47.7965 10.8509C47.9692 10.706 48.0772 10.4984 48.0968 10.2738C48.1164 10.0492 48.046 9.82594 47.901 9.65331C47.7561 9.48049 47.5485 9.37251 47.3239 9.35289Z" fill="#228B22"/>
<path id="Vector_3" d="M16.8483 27.206C16.5474 27.1388 16.2338 27.2398 16.0286 27.4699L4.12856 40.2199C3.91321 40.4405 3.83412 40.7604 3.92197 41.0559C4.00983 41.3514 4.25079 41.5761 4.55161 41.6433C4.85253 41.7104 5.1661 41.6094 5.37129 41.3793L17.2713 28.6293C17.4867 28.4088 17.5658 28.0888 17.4779 27.7934C17.3901 27.4979 17.1492 27.2731 16.8483 27.206Z" fill="#228B22"/>
<path id="Vector_4" d="M35.9714 27.4699C35.7663 27.2398 35.4526 27.1388 35.1517 27.206C34.8508 27.2731 34.6099 27.4979 34.5221 27.7934C34.4342 28.0889 34.5133 28.4088 34.7287 28.6293L46.6287 41.3793C46.9514 41.7098 47.479 41.7221 47.8167 41.407C48.1545 41.0918 48.1788 40.5647 47.8714 40.2198L35.9714 27.4699Z" fill="#228B22"/>
</g>
</g>
</g>
</g>
<defs>
<clipPath id="clip0_163_4857">
<rect width="51" height="51" fill="white" transform="translate(0.5)"/>
</clipPath>
</defs>
</svg>
