<svg width="20" height="21" viewBox="0 0 20 21" fill="none" xmlns="http://www.w3.org/2000/svg">
<g id="eye-open 1">
<g id="Group">
<path id="Vector" d="M1.66699 10.5003C1.66699 10.5003 4.69699 4.66699 10.0003 4.66699C15.3037 4.66699 18.3337 10.5003 18.3337 10.5003C18.3337 10.5003 15.3037 16.3337 10.0003 16.3337C4.69699 16.3337 1.66699 10.5003 1.66699 10.5003Z" stroke="#1A1A1A" stroke-width="1.5" stroke-linecap="round" stroke-linejoin="round"/>
<path id="Vector_2" d="M10 13C10.663 13 11.2989 12.7366 11.7678 12.2678C12.2366 11.7989 12.5 11.163 12.5 10.5C12.5 9.83696 12.2366 9.20107 11.7678 8.73223C11.2989 8.26339 10.663 8 10 8C9.33696 8 8.70107 8.26339 8.23223 8.73223C7.76339 9.20107 7.5 9.83696 7.5 10.5C7.5 11.163 7.76339 11.7989 8.23223 12.2678C8.70107 12.7366 9.33696 13 10 13V13Z" stroke="#1A1A1A" stroke-width="1.5" stroke-linecap="round" stroke-linejoin="round"/>
</g>
</g>
</svg>
