<svg width="41" height="40" viewBox="0 0 41 40" fill="none" xmlns="http://www.w3.org/2000/svg">
<g id="headphones 1" clip-path="url(#clip0_103_6128)">
<g id="Group">
<path id="Vector" d="M34.0182 15.2101V13.6723C34.0182 9.9916 32.7157 6.57143 30.3543 4.03361C27.9342 1.42857 24.6064 0 20.9762 0H19.7073C16.077 0 12.7493 1.42857 10.3291 4.03361C7.96778 6.57143 6.66526 9.9916 6.66526 13.6723V15.2101C3.79971 15.4034 1.5224 17.7899 1.5224 20.7059V23.1092C1.5224 26.1429 3.99299 28.6134 7.0266 28.6134H10.1274C10.6821 28.6134 11.1358 28.1597 11.1358 27.605V16.2017C11.1358 15.6471 10.6821 15.1933 10.1274 15.1933H8.68206V13.6723C8.68206 7.02521 13.4216 2.01681 19.6989 2.01681H20.9678C27.2535 2.01681 31.9846 7.02521 31.9846 13.6723V15.1933H30.5392C29.9846 15.1933 29.5308 15.6471 29.5308 16.2017V27.5966C29.5308 28.1513 29.9846 28.605 30.5392 28.605H31.951C31.5392 33.8655 27.9174 35.084 26.2367 35.3613C25.7745 33.9412 24.4384 32.916 22.8669 32.916H20.3459C18.3964 32.916 16.8081 34.5042 16.8081 36.4538C16.8081 38.4034 18.3964 40 20.3459 40H22.8753C24.5056 40 25.8753 38.8908 26.2871 37.395C27.1106 37.2773 28.4132 36.9832 29.7073 36.2269C31.5308 35.1597 33.6905 32.9832 33.9762 28.5966C36.8585 28.4202 39.1443 26.0252 39.1443 23.1008V20.6975C39.1527 17.7899 36.8838 15.395 34.0182 15.2101ZM9.13585 26.5882H7.04341C5.11904 26.5882 3.55601 25.0252 3.55601 23.1008V20.6975C3.55601 18.7731 5.11904 17.2101 7.04341 17.2101H9.13585V26.5882ZM22.8753 37.9832H20.3459C19.5056 37.9832 18.8249 37.3025 18.8249 36.4622C18.8249 35.6218 19.5056 34.9412 20.3459 34.9412H22.8753C23.7157 34.9412 24.3964 35.6218 24.3964 36.4622C24.3964 37.3025 23.7157 37.9832 22.8753 37.9832ZM37.1359 23.1008C37.1359 25.0252 35.5728 26.5882 33.6485 26.5882H31.556V17.2101H33.6485C35.5728 17.2101 37.1359 18.7731 37.1359 20.6975V23.1008Z" fill="#228B22"/>
</g>
</g>
<defs>
<clipPath id="clip0_103_6128">
<rect width="40" height="40" fill="white" transform="translate(0.333374)"/>
</clipPath>
</defs>
</svg>
