<svg width="18" height="17" viewBox="0 0 18 17" fill="none" xmlns="http://www.w3.org/2000/svg">
<g id="Star 2">
<g id="Group">
<path id="Vector" d="M9.10845 12.5873L12.369 14.6527C12.7858 14.9165 13.3029 14.524 13.1793 14.0373L12.2376 10.332C12.211 10.2288 12.2141 10.1202 12.2465 10.0187C12.2789 9.91712 12.3393 9.82678 12.4207 9.75803L15.3446 7.3249C15.7283 7.00531 15.5308 6.36768 15.0369 6.33561L11.2189 6.08739C11.1161 6.08009 11.0175 6.04376 10.9345 5.9826C10.8516 5.92144 10.7877 5.83798 10.7504 5.74194L9.32616 2.15611C9.28738 2.0542 9.21854 1.96649 9.12877 1.9046C9.039 1.84271 8.93254 1.80957 8.8235 1.80957C8.71447 1.80957 8.608 1.84271 8.51823 1.9046C8.42846 1.96649 8.35963 2.0542 8.32085 2.15611L6.89665 5.74194C6.85937 5.83808 6.79553 5.92165 6.71258 5.9829C6.62963 6.04415 6.53098 6.08057 6.42812 6.0879L2.6101 6.33613C2.11675 6.36768 1.91817 7.00531 2.3024 7.3249L5.2263 9.75854C5.30765 9.82725 5.36798 9.91751 5.40036 10.019C5.43274 10.1204 5.43586 10.2289 5.40936 10.332L4.53644 13.7684C4.38802 14.3523 5.0091 14.8234 5.50865 14.5064L8.53908 12.5873C8.62425 12.5331 8.72309 12.5044 8.82402 12.5044C8.92495 12.5044 9.02379 12.5331 9.10896 12.5873H9.10845Z" fill="#FF8A00"/>
</g>
</g>
</svg>
