<svg width="15" height="15" viewBox="0 0 15 15" fill="none" xmlns="http://www.w3.org/2000/svg">
<g id="Star 10">
<g id="Group">
<path id="Vector" d="M7.75816 11.1755L10.7136 13.0477C11.0914 13.2868 11.5602 12.931 11.4482 12.4899L10.5946 9.1313C10.5705 9.03775 10.5732 8.93929 10.6026 8.84725C10.6319 8.7552 10.6867 8.67331 10.7605 8.61099L13.4108 6.40552C13.7586 6.11583 13.5796 5.53787 13.1319 5.5088L9.67113 5.2838C9.57795 5.27719 9.48857 5.24425 9.41338 5.18882C9.3382 5.13338 9.2803 5.05774 9.24644 4.97068L7.9555 1.72037C7.92035 1.62799 7.85795 1.54849 7.77658 1.49239C7.69521 1.43629 7.59871 1.40625 7.49988 1.40625C7.40104 1.40625 7.30454 1.43629 7.22317 1.49239C7.1418 1.54849 7.0794 1.62799 7.04425 1.72037L5.75332 4.97068C5.71952 5.05782 5.66166 5.13357 5.58647 5.18909C5.51128 5.24461 5.42186 5.27762 5.32863 5.28427L1.86785 5.50927C1.42066 5.53787 1.24066 6.11583 1.58894 6.40552L4.23925 8.61146C4.31299 8.67374 4.36768 8.75555 4.39703 8.8475C4.42638 8.93945 4.42921 9.03782 4.40519 9.1313L3.61394 12.2461C3.47941 12.7754 4.04238 13.2024 4.49519 12.9151L7.24207 11.1755C7.31927 11.1264 7.40886 11.1004 7.50035 11.1004C7.59183 11.1004 7.68142 11.1264 7.75863 11.1755H7.75816Z" fill="#228B22"/>
</g>
</g>
</svg>
