<svg width="24" height="20" viewBox="0 0 24 20" fill="none" xmlns="http://www.w3.org/2000/svg">
<path id="Vector" opacity="0.3" fill-rule="evenodd" clip-rule="evenodd" d="M17.8667 0C15.3268 0 13.2638 1.99272 13.2638 4.4502C13.2638 6.90616 15.3268 8.90039 17.8667 8.90039C22.2303 8.90039 19.7017 16.6282 14.1983 17.4332C13.9386 17.4702 13.7016 17.5933 13.5302 17.7803C13.3588 17.9672 13.2643 18.2056 13.2638 18.4524C13.2638 19.0842 13.8652 19.5839 14.5313 19.4882C24.5341 18.0635 28.091 0.00151873 17.8667 0.00151873V0ZM4.6045 0C2.06135 0 0 1.9912 0 4.4502C0 6.90464 2.06135 8.89735 4.6045 8.89735C8.96648 8.89735 6.43789 16.6282 0.93448 17.4332C0.67509 17.4702 0.438323 17.5931 0.266948 17.7797C0.0955736 17.9663 0.000890117 18.2044 0 18.4508C0 19.0827 0.60143 19.5824 1.26591 19.4867C11.272 18.062 14.8288 0 4.6045 0Z" fill="#228B22"/>
</svg>
