<svg width="43" height="43" viewBox="0 0 43 43" fill="none" xmlns="http://www.w3.org/2000/svg">
<path id="Vector" d="M21.25 0.25C9.53275 0.25 0 9.78275 0 21.5V30.3039C0 32.4799 1.90612 34.25 4.25 34.25H6.375C6.93859 34.25 7.47909 34.0261 7.8776 33.6276C8.27612 33.2291 8.5 32.6886 8.5 32.125V21.1961C8.5 20.6325 8.27612 20.092 7.8776 19.6935C7.47909 19.295 6.93859 19.0711 6.375 19.0711H4.4455C5.627 10.8474 12.7032 4.5 21.25 4.5C29.7967 4.5 36.873 10.8474 38.0545 19.0711H36.125C35.5614 19.0711 35.0209 19.295 34.6224 19.6935C34.2239 20.092 34 20.6325 34 21.1961V34.25C34 36.5939 32.0939 38.5 29.75 38.5H25.5V36.375H17V42.75H29.75C34.4378 42.75 38.25 38.9378 38.25 34.25C40.5939 34.25 42.5 32.4799 42.5 30.3039V21.5C42.5 9.78275 32.9673 0.25 21.25 0.25Z" fill="black"/>
</svg>
